<?xml version="1.0" encoding="UTF-8" standalone="no"?>
<!-- Created with Inkscape (http://www.inkscape.org/) -->

<svg
   width="63.5mm"
   height="88.900002mm"
   viewBox="0 0 63.5 88.900002"
   version="1.1"
   id="svg1"
   inkscape:version="1.4.2 (f4327f4, 2025-05-13)"
   sodipodi:docname="c-template.svg"
   xmlns:inkscape="http://www.inkscape.org/namespaces/inkscape"
   xmlns:sodipodi="http://sodipodi.sourceforge.net/DTD/sodipodi-0.dtd"
   xmlns="http://www.w3.org/2000/svg"
   xmlns:svg="http://www.w3.org/2000/svg">
  <sodipodi:namedview
     id="namedview1"
     pagecolor="#ffffff"
     bordercolor="#000000"
     borderopacity="0.25"
     inkscape:showpageshadow="2"
     inkscape:pageopacity="0.0"
     inkscape:pagecheckerboard="0"
     inkscape:deskcolor="#d1d1d1"
     inkscape:document-units="mm"
     inkscape:zoom="1.2245804"
     inkscape:cx="39.1971"
     inkscape:cy="120.04112"
     inkscape:window-width="1280"
     inkscape:window-height="730"
     inkscape:window-x="-6"
     inkscape:window-y="-6"
     inkscape:window-maximized="1"
     inkscape:current-layer="layer1" />
  <defs
     id="defs1">
    <inkscape:path-effect
       effect="fillet_chamfer"
       id="path-effect3"
       is_visible="true"
       lpeversion="1"
       nodesatellites_param="F,0,0,1,0,0,0,1 @ F,0,0,1,0,0,0,1 @ F,0,0,1,0,0,0,1 @ F,0,0,1,0,0,0,1"
       radius="0"
       unit="px"
       method="auto"
       mode="F"
       chamfer_steps="1"
       flexible="false"
       use_knot_distance="true"
       apply_no_radius="true"
       apply_with_radius="true"
       only_selected="false"
       hide_knots="false" />
  </defs>
  <g
     inkscape:label="Layer 1"
     inkscape:groupmode="layer"
     id="layer1">
    <rect
       style="fill:#f2f2f2;stroke:#1a1a1a;stroke-width:1.896;stroke-dasharray:none;stroke-dashoffset:0;stroke-linecap:butt"
       id="rect1"
       width="61.604"
       height="87.004318"
       x="0.94784117"
       y="0.94784117"
       sodipodi:type="rect"
       ry="6" />
    <text
       xml:space="preserve"
       style="font-size:26.6715px;line-height:1;font-family:Chewy;-inkscape-font-specification:Chewy;text-align:start;writing-mode:lr-tb;direction:ltr;text-anchor:start;fill:#000000;fill-opacity:1;stroke:#ff0000;stroke-width:0.702273;stroke-dasharray:none;stroke-opacity:1"
       x="4.7942119"
       y="23.583628"
       id="text1"
       transform="scale(0.93878388,1.0652079)"><tspan
         sodipodi:role="line"
         id="tspan1"
         style="fill:#000000;fill-opacity:1;stroke:#ff0000;stroke-width:0.702273;stroke-dasharray:none;stroke-opacity:1"
         x="4.7942119"
         y="23.583628">5</tspan></text>
    <text
       xml:space="preserve"
       style="font-size:26.6715px;line-height:1;font-family:Chewy;-inkscape-font-specification:Chewy;text-align:start;writing-mode:lr-tb;direction:ltr;text-anchor:start;fill:#000000;fill-opacity:1;stroke:#ff0000;stroke-width:0.702273;stroke-dasharray:none;stroke-opacity:1"
       x="-62.846489"
       y="-59.87426"
       id="text1-9"
       transform="scale(-0.93878388,-1.0652079)"><tspan
         sodipodi:role="line"
         id="tspan1-2"
         style="fill:#000000;fill-opacity:1;stroke:#ff0000;stroke-width:0.702273;stroke-dasharray:none;stroke-opacity:1"
         x="-62.846489"
         y="-59.87426">5</tspan></text>
    <path
       style="fill:#000000;stroke:#ff0000;stroke-width:0.981423;stroke-dasharray:none"
       d="m 32.077473,49.258818 c 0.129971,0.744528 -0.205855,1.872262 0.145392,2.559225 0.938783,1.836068 0.876706,4.691916 3.780218,4.691916 0.393239,0 2.762468,-0.171092 2.762468,-0.284361 0,-0.04835 -2.80122,0.426541 -3.053255,0.426541 -1.773626,0 -3.534204,0 -5.234148,0"
       id="path1" />
    <path
       style="fill:#000000;stroke:#ff0000;stroke-width:0.930328;stroke-dasharray:none"
       d="m 31.406895,49.325423 c -0.116343,0.747391 0.184268,1.879462 -0.130146,2.569065 -0.840347,1.843125 -0.784779,4.709954 -3.383839,4.709954 -0.352005,0 -2.472803,-0.17175 -2.472803,-0.285453 0,-0.04854 2.507493,0.428179 2.7331,0.428179 1.58765,0 3.163618,0 4.685311,0"
       id="path1-8" />
    <path
       d="m 31.283163,32.087888 a 7.0059219,7.4638302 0 0 0 -7.005971,7.464034 7.0059219,7.4638302 0 0 0 0.0053,0.287368 7.6204767,5.946792 0 0 0 -5.536104,5.720086 7.6204767,5.946792 0 0 0 7.620375,5.947077 7.6204767,5.946792 0 0 0 5.38559,-1.739886 7.5092189,6.0796612 0 0 0 5.492007,1.933206 7.5092189,6.0796612 0 0 0 7.509253,-6.079441 7.5092189,6.0796612 0 0 0 -6.464472,-6.020806 7.0059219,7.4638302 0 0 0 0,-0.0476 7.0059219,7.4638302 0 0 0 -7.00597,-7.464035 z"
       style="stroke:#ff0000;stroke-width:0.800437"
       id="path6" />
  </g>
</svg>
